# xmcd
#
# Track frame offsets:
#	150
#	18421
#	37184
#	64091
#	88826
#	107603
#	122011
#	140876
#	160971
#	179607
#	200499
#	217270
#	237206
#	255302
#
# Disc length: 3695 seconds
# Revision: 0
# Processed by: cddbd v1.5.2PL0 Copyright (c) Steve Scherf et al.
# Submitted via: dBpowerAMP V12.0
#
DISCID=d20e6d0e
DTITLE=Mississippi Heat - Delta Bound
DYEAR=2012
DGENRE=Blues
TTITLE0=Granny Mae
TTITLE1=Look-A-Here, Baby
TTITLE2=New Orleans Man
TTITLE3=My Mother's Plea
TTITLE4=Don't Let Me Be Misunderstood
TTITLE5=Padlock Blues
TTITLE6=What's Happening To Me?
TTITLE7=The Blues Matrix
TTITLE8=Goin' To St. Louis
TTITLE9=Trouble In His Trail
TTITLE10=Mr. Mistreater
TTITLE11=Lemon Twist
TTITLE12=Sweet Ol' Blues
TTITLE13=Easy To Please
EXTD=
EXTT0=
EXTT1=
EXTT2=
EXTT3=
EXTT4=
EXTT5=
EXTT6=
EXTT7=
EXTT8=
EXTT9=
EXTT10=
EXTT11=
EXTT12=
EXTT13=
PLAYORDER=
